<svg width="4815" height="4260" viewBox="0 0 4815 4260" fill="none" xmlns="http://www.w3.org/2000/svg">
<path d="M95 3075C95 3066.72 101.716 3060 110 3060H680C688.284 3060 695 3066.72 695 3075V3845C695 3853.28 688.284 3860 680 3860H110C101.716 3860 95 3853.28 95 3845V3075Z" fill="#787878" fill-opacity="0.7"/>
<path d="M2495 1025C2495 1016.72 2501.72 1010 2510 1010H3080C3088.28 1010 3095 1016.72 3095 1025V1795C3095 1803.28 3088.28 1810 3080 1810H2510C2501.72 1810 2495 1803.28 2495 1795V1025Z" fill="#787878" fill-opacity="0.7"/>
<path d="M3295 3075C3295 3066.72 3301.72 3060 3310 3060H3880C3888.28 3060 3895 3066.72 3895 3075V3845C3895 3853.28 3888.28 3860 3880 3860H3310C3301.72 3860 3295 3853.28 3295 3845V3075Z" fill="#787878" fill-opacity="0.7"/>
<path d="M4095 3075C4095 3066.72 4101.72 3060 4110 3060H4680C4688.28 3060 4695 3066.72 4695 3075V3845C4695 3853.28 4688.28 3860 4680 3860H4110C4101.72 3860 4095 3853.28 4095 3845V3075Z" fill="#787878" fill-opacity="0.7"/>
<path d="M4095 1025C4095 1016.72 4101.72 1010 4110 1010H4680C4688.28 1010 4695 1016.72 4695 1025V1795C4695 1803.28 4688.28 1810 4680 1810H4110C4101.72 1810 4095 1803.28 4095 1795V1025Z" fill="#787878" fill-opacity="0.7"/>
<line x1="1600" y1="2000" x2="1600" y2="3960" stroke="#333333" stroke-width="20"/>
<line x1="2400" y1="2000" x2="2400" y2="3960" stroke="#333333" stroke-width="20"/>
<line x1="4805" y1="2970" x2="4804" y2="3960" stroke="#333333" stroke-width="20"/>
<line x1="4000" y1="2000" x2="4000" y2="3960" stroke="#333333" stroke-width="20"/>
<line x1="3200" y1="2000" x2="3200" y2="3960" stroke="#333333" stroke-width="20"/>
<line x1="800" y1="2010" x2="800" y2="3960" stroke="#333333" stroke-width="20"/>
<line x1="10" y1="2010" x2="10" y2="3960" stroke="#333333" stroke-width="20"/>
<line y1="2980" x2="250" y2="2980" stroke="#333333" stroke-width="20"/>
<line x1="540" y1="2980" x2="790" y2="2980" stroke="#333333" stroke-width="20"/>
<line y1="2010" x2="250" y2="2010" stroke="#333333" stroke-width="20"/>
<line x1="540" y1="2010" x2="790" y2="2010" stroke="#333333" stroke-width="20"/>
<line x1="800" y1="2010" x2="1050" y2="2010" stroke="#333333" stroke-width="20"/>
<line x1="1340" y1="2010" x2="1590" y2="2010" stroke="#333333" stroke-width="20"/>
<line y1="315" x2="1060" y2="315" stroke="#333333" stroke-width="10"/>
<line x1="1350" y1="315" x2="1600" y2="315" stroke="#333333" stroke-width="10"/>
<line x1="1350" y1="5" x2="1610" y2="5" stroke="#333333" stroke-width="10"/>
<line x1="1600" y1="2010" x2="1850" y2="2010" stroke="#333333" stroke-width="20"/>
<line x1="1600" y1="805" x2="4805" y2="805" stroke="#333333" stroke-width="10"/>
<line x1="2140" y1="2010" x2="2390" y2="2010" stroke="#333333" stroke-width="20"/>
<line x1="3995" y1="3950" x2="4805" y2="3950" stroke="#333333" stroke-width="20"/>
<line x1="3190" y1="3950" x2="4000" y2="3950" stroke="#333333" stroke-width="20"/>
<line x1="2390" y1="3950" x2="3200" y2="3950" stroke="#333333" stroke-width="20"/>
<line x1="1590" y1="3950" x2="2400" y2="3950" stroke="#333333" stroke-width="20"/>
<line x1="790" y1="3950" x2="1600" y2="3950" stroke="#333333" stroke-width="20"/>
<line x1="2400" y1="2010" x2="2650" y2="2010" stroke="#333333" stroke-width="20"/>
<line x1="2940" y1="2010" x2="3190" y2="2010" stroke="#333333" stroke-width="20"/>
<line x1="3210" y1="2010" x2="3460" y2="2010" stroke="#333333" stroke-width="20"/>
<line x1="3757" y1="2010" x2="4007" y2="2010" stroke="#333333" stroke-width="20"/>
<line x1="4007" y1="2980" x2="4257" y2="2980" stroke="#333333" stroke-width="20"/>
<line x1="4547" y1="2980" x2="4797" y2="2980" stroke="#333333" stroke-width="20"/>
<line y1="3950" x2="250" y2="3950" stroke="#333333" stroke-width="20"/>
<line x1="540" y1="3950" x2="790" y2="3950" stroke="#333333" stroke-width="20"/>
<line y1="4250" x2="250" y2="4250" stroke="#333333" stroke-width="20"/>
<line x1="540" y1="4250" x2="790" y2="4250" stroke="#333333" stroke-width="20"/>
<line x1="800" y1="2000" x2="800" y2="3960" stroke="#333333" stroke-width="20"/>
<line y1="2980" x2="250" y2="2980" stroke="#333333" stroke-width="20"/>
<line x1="4810" y1="800" x2="4810" y2="2970" stroke="#333333" stroke-width="10"/>
<line x1="10" y1="3959.99" x2="9" y2="4259.99" stroke="#333333" stroke-width="20"/>
<line x1="800" y1="3959.99" x2="799" y2="4259.99" stroke="#333333" stroke-width="20"/>
<line x1="800" y1="5.0083" x2="1050" y2="5.0083" stroke="#333333" stroke-width="10"/>
<line x1="805" y1="10" x2="804" y2="310" stroke="#333333" stroke-width="10"/>
<line x1="1605" y1="10" x2="1604" y2="310" stroke="#333333" stroke-width="10"/>
<line x1="1605" y1="310" x2="1605" y2="810" stroke="#333333" stroke-width="10"/>
<line x1="5" y1="310" x2="4.99993" y2="2010" stroke="#333333" stroke-width="10"/>
<path d="M95 1025C95 1016.72 101.716 1010 110 1010H680C688.284 1010 695 1016.72 695 1025V1795C695 1803.28 688.284 1810 680 1810H110C101.716 1810 95 1803.28 95 1795V1025Z" fill="#787878" fill-opacity="0.7"/>
<path d="M1695 1025C1695 1016.72 1701.72 1010 1710 1010H2280C2288.28 1010 2295 1016.72 2295 1025V1795C2295 1803.28 2288.28 1810 2280 1810H1710C1701.72 1810 1695 1803.28 1695 1795V1025Z" fill="#787878" fill-opacity="0.7"/>
<path d="M1695 2125C1695 2116.72 1701.72 2110 1710 2110H2280C2288.28 2110 2295 2116.72 2295 2125V2895C2295 2903.28 2288.28 2910 2280 2910H1710C1701.72 2910 1695 2903.28 1695 2895V2125Z" fill="#787878" fill-opacity="0.7"/>
<path d="M1695 3075C1695 3066.72 1701.72 3060 1710 3060H2280C2288.28 3060 2295 3066.72 2295 3075V3845C2295 3853.28 2288.28 3860 2280 3860H1710C1701.72 3860 1695 3853.28 1695 3845V3075Z" fill="#787878" fill-opacity="0.7"/>
<path d="M2495 2125C2495 2116.72 2501.72 2110 2510 2110H3080C3088.28 2110 3095 2116.72 3095 2125V2895C3095 2903.28 3088.28 2910 3080 2910H2510C2501.72 2910 2495 2903.28 2495 2895V2125Z" fill="#787878" fill-opacity="0.7"/>
<path d="M2495 3075C2495 3066.72 2501.72 3060 2510 3060H3080C3088.28 3060 3095 3066.72 3095 3075V3845C3095 3853.28 3088.28 3860 3080 3860H2510C2501.72 3860 2495 3853.28 2495 3845V3075Z" fill="#787878" fill-opacity="0.7"/>
<path d="M895 2125C895 2116.72 901.716 2110 910 2110H1480C1488.28 2110 1495 2116.72 1495 2125V2895C1495 2903.28 1488.28 2910 1480 2910H910C901.716 2910 895 2903.28 895 2895V2125Z" fill="#787878" fill-opacity="0.7"/>
<path d="M895 3075C895 3066.72 901.716 3060 910 3060H1480C1488.28 3060 1495 3066.72 1495 3075V3845C1495 3853.28 1488.28 3860 1480 3860H910C901.716 3860 895 3853.28 895 3845V3075Z" fill="#787878" fill-opacity="0.7"/>
</svg>
